<svg viewBox="16.56 15.17 18.48 19.9" xmlns="http://www.w3.org/2000/svg"><path d="M35.04 24.97a3.69 3.69 0 0 0-.96.81.42.42 0 0 0-.1.32c.07.96-.04 1.9-.31 2.83-.05.16-.05.27.09.37l.12.12c.22.26.21.32-.01.56-.36.39-.74.75-1.13 1.1a1.5 1.5 0 0 0-.23.26 8.13 8.13 0 0 1-3.84 2.96l-.31.16c-.7.46-1.47.65-2.3.6h-.49a3.73 3.73 0 0 1-2.31-.63 1.3 1.3 0 0 0-.27-.13 8.1 8.1 0 0 1-3.81-2.93 1.98 1.98 0 0 0-.31-.35c-.39-.32-.73-.68-1.08-1.04-.22-.23-.26-.32-.02-.54.27-.23.26-.45.17-.75a7.45 7.45 0 0 1-.25-2.54.5.5 0 0 0-.13-.39 4 4 0 0 0-1-.83l.99-.05c.22 0 .34-.07.4-.32a8.06 8.06 0 0 1 4.42-5.3c.08-.03.2-.04.18-.19 0-.08.07-.09.13-.06.14.08.27.01.4-.04a7.6 7.6 0 0 1 2.04-.44c.17-.01.24-.06.25-.24l.23-2.88c0-.1-.01-.23.15-.24.18 0 .16.14.17.25.1.94.2 1.88.27 2.82.02.22.09.28.3.29.77.05 1.51.23 2.25.5.2.06.38.12.58.22a8.2 8.2 0 0 1 4.42 5.42c.04.15.12.2.26.2.17 0 .35.03.52.04h.5l.02.06" fill="#27662f"/><path d="M32.7 29.02a8.59 8.59 0 0 1-3.68-1.62 5.16 5.16 0 0 0-3.04-1.16c-.65 0-1.29.05-1.9.33a8.95 8.95 0 0 0-1.5.87 8.6 8.6 0 0 1-3.6 1.57 1.69 1.69 0 0 0-.8.41c-.24.2-.24.25-.05.48.42.52.91.97 1.43 1.4 1.22.99 2.53 1.87 3.78 2.84.2.16.43.3.68.4.58.26 1.2.25 1.81.24h.65c.53-.02 1.05-.1 1.49-.41 1.5-1.08 3.01-2.15 4.44-3.33.41-.35.8-.73 1.14-1.15.12-.16.15-.29-.02-.44a1.64 1.64 0 0 0-.83-.43zm-.13.83c-.05-.02-.15-.14-.12.06.01.06-.08.01-.12 0a1.76 1.76 0 0 1-.78-.29c-.48-.31-1.03-.43-1.54-.69.03.24.13.37.36.44.41.14.82.31 1.23.48.08.03.17.05.24.17-.3 0-.55-.18-.83-.2l.49 1.05.5-.65c0 .24-.1.39-.18.54a4.4 4.4 0 0 1-1.14 1.34c-.69.58-1.39 1.14-2.15 1.6a3.22 3.22 0 0 1-1.56.47c-.86.04-1.73.08-2.59-.03a4.2 4.2 0 0 1-1.96-.9c-.76-.58-1.53-1.13-2.15-1.86a3.47 3.47 0 0 1-.67-1.04c-.02-.06-.05-.12-.03-.23l.6.76.44-.95-.78.09c.04-.13.13-.14.2-.15.5-.12.93-.37 1.4-.54.19-.07.16-.24.24-.36-.87.22-1.6.77-2.45 1-.05-.1.05-.12.08-.2l-.5.2-.03-.05 1.1-.7c.04.15-.09.22-.1.4.53-.5 1.2-.6 1.79-.86.83-.36 1.61-.8 2.4-1.24a3.69 3.69 0 0 1 3.7-.02c.87.47 1.72.97 2.65 1.32.54.2 1.12.34 1.57.77 0-.15-.14-.24-.1-.42.33.28.68.5 1.02.72-.1.05-.16-.02-.23-.04zm-7.55-8.58c.14.06.15.17.17.27.08.37.29.55.62.56.36.01.5-.1.6-.46.03-.16.1-.29.2-.44-.09.97-.27 1.19-.92 1.13-.42-.03-.7-.48-.67-1.06zm6.75 3.83c.25 0 .5.04.74.05.25 0 .5 0 .75-.02l.7-.07c-1.6-.2-2.38-.95-1.94-2.76l-.89.74c0-.02-.02-.03-.03-.04l.73-.69c-1.11.07-2.01-.46-2.49-1.42a3.46 3.46 0 0 1-.36-1.26c-.02-.26-.12-.27-.33-.2-.25.1-.48.23-.7.39a2.87 2.87 0 0 0-1.16 1.94c-.08.54-.43.82-.94.81-.54 0-.89-.25-.99-.75-.08-.4-.2-.78-.37-1.16-.31-.68-.88-1.02-1.54-1.28-.14-.05-.18 0-.2.14-.04.48-.16.95-.39 1.38a2.43 2.43 0 0 1-2.3 1.4c-.03 0-.09-.05-.12.03l.43.4c.15.1.27.24.37.38a1.4 1.4 0 0 1-.42-.33l-.62-.5.05.26c.1.44.13.88-.02 1.32-.18.52-.5.9-1.06 1.01-.33.07-.66.13-.99.17.74.1 1.47.17 2.21.05-.79.3-1.6.24-2.43.14.56.54.82 1.2 1.02 1.9.13.44.12.44.57.37a.78.78 0 0 1 .6.15c.06.04.12.08.1.16-.01.08-.1.07-.16.06-.05-.01-.1-.01-.12.05-.08.3-.32.52-.5.8l.75-.16a8.51 8.51 0 0 0 2.65-1.27c.6-.38 1.15-.85 1.82-1.07a4.66 4.66 0 0 1 4.26.52c.93.63 1.85 1.27 2.91 1.65.43.16.87.21 1.3.3a2.15 2.15 0 0 1-.41-.77c-.02-.04-.02-.1-.09-.09-.07.01-.16.09-.19 0-.02-.1.1-.16.17-.2.18-.13.38-.13.6-.1.22.02.36-.02.43-.3a3.8 3.8 0 0 1 .8-1.72c.07-.09.18-.16.23-.32-.83.15-1.64.2-2.43-.1zm-12.75 2.08c-.08-.04-.14-.09-.1-.2.18-.59.45-1.13.94-1.53.02-.02.05-.02.1-.04a1.8 1.8 0 0 1-.25.45 6.68 6.68 0 0 0-.5.83c-.06.14-.06.23.1.32.26.17.57.29.78.55a2.92 2.92 0 0 1-1.07-.38zm.61-.33c-.06-.05-.08-.12-.05-.2a4 4 0 0 1 1.2-1.74h.06a20.68 20.68 0 0 0-.77 1.42c-.16.34-.15.4.15.63.2.15.41.28.62.42l.08.09c-.52-.06-.9-.34-1.29-.62zm4.4-.84-.04-.03c0-.08.08-.2-.02-.24-.1-.05-.16.07-.21.14a3.38 3.38 0 0 0-.29.4 2.33 2.33 0 0 1-2.1.98c.24-.1.45-.17.68-.25l-.05-.04c-.89-.03-1.13-.57-.9-1.42.07-.29.25-.56.33-.84.07-.24.23-.48.2-.75-.03-.21.08-.26.25-.27a1.22 1.22 0 0 0 .56-.2c.35-.21.43-.48.26-.85-.03-.06-.08-.11-.05-.22.6.4 1 .96 1.4 1.6.01-.84-.2-1.6-.33-2.39.13.12.13.12.18.27.4 1.13.47 2.3.4 3.49a1 1 0 0 1-.27.62zm.35 0c-.04 0-.08 0-.1-.03-.04-.05-.01-.09.02-.13.24-.34.24-.34.13-.73.12.04.17.12.23.18.25.31.12.64-.28.7zm3.01-.03c-.03.04-.08.03-.13.02-.4-.1-.5-.36-.25-.7.06-.07.11-.16.24-.2-.17.3-.13.55.12.77.04.02.05.07.02.1zm2.22 1c.22.13.43.2.67.27-.15.08-.3.06-.43.03-.73-.16-1.4-.42-1.76-1.15-.06-.12-.17-.22-.27-.33-.03-.04-.08-.1-.14-.07-.08.04-.03.11-.01.17.01.04.04.08 0 .13a.8.8 0 0 1-.3-.6 8.33 8.33 0 0 1 .38-3.45c.05-.28.18-.52.32-.76a2.2 2.2 0 0 1-.17.71l-.05.09c-.08.65-.26 1.28-.24 2 .4-.63.8-1.2 1.4-1.6.02.12-.04.18-.06.24-.15.35-.08.6.24.81.18.13.38.2.6.22.18.02.3.06.25.29-.04.19.06.36.11.54.12.4.44.7.47 1.13l.02.15c.08.8-.17 1.09-1.03 1.18zm1.13.42c.2-.12.4-.23.58-.36.43-.27.45-.35.23-.8a6.53 6.53 0 0 0-.6-1.02c-.07-.1-.15-.18-.14-.35.27.15.45.36.6.58.26.36.54.7.66 1.14.02.1.05.2-.05.27-.38.27-.76.56-1.28.54zm1.8-.16c-.31.15-.63.3-1.05.32.2-.21.42-.28.61-.4.53-.33.48-.18.2-.73-.16-.33-.37-.65-.58-1.02a.8.8 0 0 1 .32.25c.3.35.52.74.66 1.18.06.19.04.31-.15.4zm-7.16-5.65a5.11 5.11 0 0 1 0-.82c.1-1.5.23-2.99.35-4.48 0-.07 0-.14.05-.2l.46 4.71c.02.23.02.47.03.7 0 .23-.13.42-.34.44-.32.05-.52-.07-.55-.35zm-1.73 3.59c.04.32-.21.53-.36.8-.2.4-.55.56-.93.7a.76.76 0 0 1-.26.05c-.64-.02-1.03-.35-.84-1.05a1.93 1.93 0 0 1 1.15-1.32c.35-.15.85-.01 1.1.27.12.15.15.33.14.55m-1.98-.71c.23-.1.35-.36.61-.39a.06.06 0 0 0 .04-.03c.07-.13.07-.13.18-.13.75 0 1.24.4 1.44 1.15.13-.51-.38-1.63-.9-1.96-.15.49-.5.7-.97.77-.08.01-.2-.03-.22.1-.03.17-.11.33-.18.49m8.77 1.47c0-.66-.7-1.51-1.36-1.63-.67-.13-1.19.41-1.06 1.08.06.26.27.4.38.63.22.46.64.61 1.08.7.53.1.96-.26.96-.78m-2.73-.88c.1-.52.42-.84.88-1.04.33-.14.53-.07.79.05.24.1.41.28.66.44-.1-.19-.19-.33-.22-.5 0-.09-.05-.11-.13-.12-.52-.04-.91-.26-1.08-.83-.5.62-.97 1.18-.9 2m-.22 7.64c-.02-.67-.02-.67-.63-.85a3.62 3.62 0 0 0-1.81-.07c-.8.18-.8.18-.87.98v.05c-.02.13-.04.25.15.3.17.04.23-.03.3-.17.15-.33.32-.65.49-.97.02-.06.06-.13.14-.1.07.01.07.09.07.14l.02.57c.01.78.01.77.8.7.13-.02.16-.05.16-.18v-.97c.01-.1-.01-.23.1-.26.12-.04.14.1.19.19.16.3.31.61.46.93.05.12.1.14.25.12.3-.06.15-.28.18-.4m-.64-3.24c.12-.49.29-.94.5-1.38.05-.1.12-.2 0-.3-.12-.1-.26-.18-.44-.14-.13.02-.17.12-.2.23a3.1 3.1 0 0 0 .14 1.59m-2.04-.06c.16-.41.22-.84.17-1.27-.02-.13-.01-.26-.1-.38-.11-.19-.27-.14-.43-.07-.13.06-.27.14-.18.32.22.45.4.91.54 1.4m-.06-2c.73.22 1.45.2 2.18 0a3.26 3.26 0 0 0-2.18 0m1.75 4.98c-.06.4-.02.8.02 1.18.02.18.2.25.38.19.17-.05.24-.16.16-.32l-.56-1.05m-1.34 0c-.19.35-.38.71-.56 1.08-.08.15.02.25.17.29.18.06.34.02.37-.17.05-.4.08-.8.02-1.2m1.37 1.56c-.15-.11-.24-.2-.22-.34.02-.1-.04-.12-.14-.12l-.69.01c-.07 0-.14 0-.13.1.03.16-.09.24-.2.35zM23.6 29.4v-.92c0-.14-.07-.18-.18-.2-.14 0-.28.03-.38.15-.1.11-.05.24 0 .35.12.23.3.4.56.62m4.46-.2c.25-.14.4-.33.56-.52.08-.09.07-.17 0-.25-.1-.13-.26-.16-.42-.14-.12.02-.14.1-.14.2v.7m-4.01 2.83c-.29 0-.5.04-.73 0-.04 0-.1 0-.1.06-.02.18-.1.38 0 .55.05.08.15.22.27.07.15-.23.32-.44.56-.68m3.57.01c.2.2.33.37.47.54.05.07.06.23.22.17.14-.06.2-.17.18-.32l-.03-.24c0-.12-.05-.18-.17-.15-.2.05-.4 0-.67 0m-3.05 1.92c-.16-.12-.23-.27-.2-.45 0-.1-.05-.12-.12-.14-.1-.02-.08.05-.09.1 0 .11-.08.17-.17.2a.77.77 0 0 1-.63-.16c-.15-.12-.12-.26-.05-.4.03-.06 0-.1-.05-.13-.03-.02-.07 0-.08.03-.04.17-.22.17-.36.24.54.4 1.12.6 1.75.7m2.51 0a3.7 3.7 0 0 0 1.79-.73c-.19 0-.3-.06-.38-.16-.03-.04-.01-.12-.1-.08-.07.04-.05.1-.02.15.06.14.06.28-.07.38a.8.8 0 0 1-.61.15c-.1-.01-.17-.06-.19-.17-.01-.05.02-.14-.1-.12-.07.02-.11.05-.1.14.02.19-.05.33-.22.45m2.22-3.9c.22-.3.45-.47.54-.74.07-.2-.05-.28-.2-.33-.16-.05-.28 0-.3.19l-.04.87M22.36 30l-.04-.79c0-.1-.01-.2-.13-.24-.12-.04-.22 0-.32.08-.1.09-.07.19-.03.3.1.24.32.38.52.65m.63 1.8-.04-.01-.44.87c-.06.12.04.17.1.23.06.08.15.14.26.1.09-.03.07-.13.07-.2l.05-.99m5.69.06.05.94c0 .07-.03.16.07.2.1.02.2-.03.26-.1s.15-.12.1-.23c-.14-.26-.22-.54-.48-.81m-4.71.59c-.21.2-.3.43-.43.64-.06.08-.1.17-.02.27s.18.15.3.12c.13-.03.15-.15.15-.26zm3.73 0c-.04.3-.02.58 0 .85.01.12.08.23.24.18.13-.04.3-.1.23-.28a2.37 2.37 0 0 0-.47-.74m1.82-1.17c.12.27.14.5.2.72 0 .07-.02.19.1.2.13.01.23-.06.31-.16.07-.08.05-.16 0-.25-.13-.22-.34-.35-.61-.51m.84.77c.41-.24.95-.9.87-1.1-.21.22-.43.42-.67.6a.47.47 0 0 0-.2.5m-9.99-1.03c.19.45.56.74.94 1.03-.06-.12.07-.27-.05-.36l-.89-.67m1.72.35a2.01 2.01 0 0 1-.04-.04c-.18.18-.4.34-.54.55-.1.14.09.24.21.3.1.04.19.06.21-.1.04-.24.1-.48.16-.71m7.8 1.08c-.2-.02-.34-.23-.52-.04-.14.14.09.23.01.4zm-8.12 0 .47.33c-.07-.14.21-.23.05-.38-.2-.18-.32.03-.52.05m.33-3.72c.47.13.69.02.7-.35zm6.23-.66-.8-.46c.14.39.37.52.8.46m.52.3c.06.4.29.51.7.35zm-4.75-.73c-.25.14-.5.25-.73.43.39.06.64-.09.73-.43m-3.62 3.1c.22.39.56.62.97.74-.34-.22-.65-.48-.97-.73m8.73 1.44c.08 0 .3-.17.28-.22-.01-.07.02-.2-.1-.18-.12.03-.3.01-.31.17-.02.07.03.19.13.23m-6.6-.24c-.1-.1-.24-.1-.35-.14-.1-.03-.1.1-.1.16.01.16.19.19.28.21.1.03.1-.14.17-.23m8.2-.87-.63.38.04.06c.24-.08.43-.23.58-.44" fill="#fff"/></svg>