<svg viewBox="16.231 16.171 17.736 17.905" xmlns="http://www.w3.org/2000/svg"><path d="m25.235 34.072c-5.037.002-8.98-4.219-8.628-9.159.04-.576.095-1.161.305-1.698.215-.544.106-1.047.002-1.58-.143-.715-.463-1.374-.604-2.086-.042-.21-.169-.48.03-.61.201-.129.366.123.52.25.434.355.883.682 1.379.947.122.065.184.064.275-.05a8.234 8.234 0 0 1 2.291-1.974c.232-.134.321-.388.521-.546.66-.522 1.354-.96 2.192-1.178 1.517-.397 2.973-.233 4.395.36.573.238 1.025.66 1.422 1.134.103.123.217.223.353.306a8.26 8.26 0 0 1 2.105 1.836c.104.129.17.138.314.05.277-.172.536-.362.78-.575.224-.196.496-.32.761-.448.217-.103.295-.035.316.208.022.255-.067.486-.153.712-.267.705-.407 1.443-.579 2.172a.777.777 0 0 0 .032.456 8.582 8.582 0 0 1 -6.203 11.275c-.625.144-1.258.222-1.826.198" fill="#27662f"/><path d="m26.08 30.229c.006.212-.187-.017-.249.095-.106-.078-.27.053-.312-.118-.027-.115.215-.43.286-.396a.492.492 0 0 1 .275.419zm1.01.218c.108.153.32.135.482.131.12-.004.078-.168.096-.281-.024-.3-.064-.612-.19-.906-.104-.243-.175-.25-.335-.045-.195.242-.24.834-.052 1.101zm.723-.206c-.03.206.07.247.242.214.447-.089.823-.3 1.056-.697.457-.774.627-1.637.735-2.435-.011-.3-.026-.518-.11-.721-.03-.077-.067-.185-.17-.168-.085.011-.09.118-.107.192-.232 1.074-.813 1.934-1.639 2.638-.11.095-.138.171-.106.308.052.221.13.44.099.67zm-3.445-2.04c-.05-.03-.116-.031-.112.074.006.16.226.528.341.52.225-.01.208-.218.278-.387-.075-.27-.348-.119-.507-.208zm.693 1.723c-.18.017-.205.226-.3.437.21-.078.426.04.506-.148.03-.076-.098-.299-.206-.29zm1.052-1.61c.041.144.018.327.202.398.115.045.203-.006.27-.097a1.64 1.64 0 0 0 .282-.64l-.608.168c-.091.024-.179.06-.146.172zm-2.071 1.605c-.025.1-.042.203-.063.312.042.044-.052.163.07.156.193-.016.438.04.563-.103.117-.134-.069-.298-.144-.434-.057-.103-.14-.24-.26-.227-.136.018-.136.182-.166.296zm-1.397.646c.201.039.24-.003.211-.156a1.8 1.8 0 0 1 .035-.884c.05-.166.001-.243-.145-.322a6.039 6.039 0 0 1 -1.886-1.596c-.423-.537-.75-1.136-1.116-1.71-.065-.101-.117-.29-.275-.226-.154.061-.075.245-.083.377-.001.018.007.035.012.052a9.383 9.383 0 0 0 1.4 3.226c.458.668.979 1.28 1.847 1.239zm3.665-.5c-.024.103-.058.23.063.276.16.061.333.1.508.082.05-.007.03-.073.021-.113-.056-.301-.133-.594-.343-.875-.132.213-.2.419-.249.63zm-2.431.517c-.641.118-1.265.458-1.954.173.387.298.752.614 1.287.365.185-.085.402-.112.608-.147 1.206-.204 2.393-.157 3.563.237.531.179 1.271-.25 1.447-.796-.904.505-1.046.534-1.95.275-.993-.283-1.99-.293-3.001-.107zm3.834-2.836c-.503-.03-.684.139-.684.643v.026c0 .104-.002.208.002.312.005.106.075.125.136.06.258-.27.495-.556.66-.894.046-.095-.015-.141-.114-.147zm-1.897.523c-.112.008-.224.018-.339.023-.391.018-.411.056-.202.384.028.045.055.092.093.126.132.123.264.125.382-.02a.916.916 0 0 0 .176-.405c.015-.081-.007-.14-.11-.108zm5.707-5.706c-.43.492-.627 1.054-.483 1.778.064-.278.097-.496.161-.706.14-.465.376-.535.765-.237.063-.338-.092-.405-.497-.375.537-.706 1.137-1.304 1.726-2.008-.033.26-.052.453-.084.643-.158.94-.312 1.883-.992 2.626-.105.116-.127.27-.146.414-.065.523-.414.782-.862.952-.213.082-.314-.105-.445-.2-.132-.097-.009-.193.04-.269.142-.221.177-.418.047-.679-.21-.419-.25-.87-.049-1.317.019-.042.06-.092.01-.143-.34.246-.49.984-.27 1.304.13.187.142.39.044.596-.115.245-.22.495-.377.718a.64.64 0 0 0 -.14.328c.172-.033.227-.217.402-.277-.003.568.085 1.11.158 1.65.02.155.035.314.078.465.34 1.197-.47 2.502-1.26 2.97-.751.444-1.445.946-1.953 1.668-.081.114-.188.161-.32.2-.853.25-1.696.137-2.542-.021-.084-.015-.164-.066-.253-.029-.006.055.025.077.068.098a.301.301 0 0 1 .107.072c-.431-.05-.859-.104-1.28-.207a.36.36 0 0 1 -.219-.177c-.424-.692-1.07-1.13-1.744-1.54a3.543 3.543 0 0 1 -.75-.65c-.252-.276-.401-.588-.354-.976.014-.11.003-.224.003-.364-.151.088-.084.258-.179.342-.164-.231-.198-.762-.068-1.165a8.679 8.679 0 0 0 1.214 2.047c.032.04.06.09.074.138.203.725.86.939 1.418 1.264.06.035.13.033.201-.002 1.051-.535 2.166-.568 3.298-.396.466.068.933.16 1.373.336.198.077.372.02.553-.052.598-.238 1.172-.558 1.313-1.216.129-.606.399-1.162.511-1.772.056-.307.153-.606.188-.921.038-.341-.022-.66-.145-.975-.052-.135-.118-.271-.29-.248-.153.02-.244.137-.271.285-.077.446-.277.844-.484 1.238-.136.258-.145.266-.341.043-.157-.173-.416-.261-.463-.54-.627.347-1.323.483-1.989.7-.075-.087.07-.124-.01-.223-.653.39-1.307.576-1.786-.308-.063.203.064.334.068.511-.421-.088-.815-.188-.982-.651-.115.088-.033.19-.09.265-.022-.002-.05.002-.07-.008-.606-.247-.967-.146-1.336.422-.125.193-.193.2-.352.045a5.136 5.136 0 0 1 -.965-1.3c-.11-.21-.12-.444-.14-.71.221.115.38.273.664.327-.4-.396-.716-.776-1.02-1.167-.17-.217-.256-.425-.109-.69.212-.383.115-.754-.083-1.119.051.504-.068.97-.268 1.428-.074.169.087.324.169.475.059.109.188.184.168.343-.358-.236-.36-.238-.725.068-.072.06-.114.003-.158-.026-.308-.208-.598-.43-.638-.844a.968.968 0 0 0 -.215-.497c-.636-.822-.893-1.787-1.037-2.791-.017-.107-.066-.214-.016-.369.48.668 1.113 1.15 1.68 1.75-.196.055-.38.037-.482.191a.454.454 0 0 0 -.073.354c.374-.288.695-.28.849.04.1.211.163.443.125.687-.008.056-.049.112 0 .18.177-.142.16-.338.147-.525-.04-.63-.394-1.092-.848-1.481-.74-.634-1.367-1.351-1.762-2.25-.126-.285-.238-.578-.247-.898.023-.002.037-.007.04-.003.647.7 1.581 1.012 2.257 1.674.153.15.354.225.557.282.147.041.214.102.21.266-.002.148-.001.308.11.484.057-.366.097-.69.16-1.008.214-1.067.694-2 1.404-2.825.775-.902 1.753-1.362 2.928-1.505 1.149-.139 2.27-.063 3.363.306.944.319 1.592 1.021 2.136 1.819.641.938 1.01 1.967.945 3.124-.006.09-.02.189.07.307.093-.298.12-.576.138-.853.012-.14.026-.22.206-.215.196.006.382-.1.51-.24.431-.464 1.015-.705 1.512-1.072.189-.14.37-.292.55-.444.043-.036.087-.11.152-.076.076.04.048.122.03.188-.144.51-.374.977-.698 1.396-.477.616-1.028 1.167-1.54 1.753zm-4.873 9.056c-.325-.371-1.832-.47-2.369-.164.818-.021 1.58-.053 2.37.164zm2.877-2.002c-.004.365-.045.715-.304 1.002.55-.322.623-.633.304-1.002zm-3.13-7.703c.474.012.904-.088 1.255-.493l-1.256.493zm-4.094-.596c.469.115.901.312 1.32.545-.36-.373-.702-.785-1.32-.545zm2.592 5.733c-.026-.076-.043-.153-.075-.218-.092-.189-.179-.379-.289-.558-.227-.366-.46-.386-.785-.093-.074.064-.104.125-.02.191.07.057.138.216.242.084.114-.142.195-.072.28.001.213.188.42.385.647.593zm1.505-.73c.092-.115.014-.22-.104-.296-.157-.102-.291-.138-.429.035-.092.114-.22.2-.312.313-.134.162-.274.327-.288.62.207-.222.339-.444.579-.542.068-.027.14-.101.213-.027.18.182.27-.013.341-.104zm1.845.432c-.078-.114-.114-.165-.147-.216-.341-.53-.838-.906-1.288-1.33-.12-.115-.229-.255-.406-.263-.18-.008-.656.295-.745.448.26-.048.5-.274.75-.174.254.102.344.403.501.62.084.115.06.198-.026.294-.153.17-.3.349-.449.522l.05.05c.22-.158.445-.308.658-.472.1-.08.158-.106.28-.013.24.183.505.332.822.534zm1.967-3.9c-.105-.348-.328-.612-.589-.886-.047.137.041.18.075.244.3.552.165.919-.386 1.107-.181.062-.3-.052-.443-.097-.135-.043.007-.168-.028-.25-.009-.022-.026-.039-.043-.06-.334.372-.674.274-1.032-.028.027.227.188.384.044.57-.166.213-.311.445-.477.658-.333.428-.687.46-1.087.113-.025-.023-.05-.05-.077-.071-.222-.182-.276-.406-.196-.68.046-.159.129-.313.111-.528-.264.283-.338.619-.459.953-.085-.117.042-.214-.065-.318-.06.136-.16.259-.162.384-.004.18-.09.116-.19.13-.304.043-.374-.143-.415-.38-.064-.368-.253-.675-.498-.952.066.263.133.52.167.788.042.32-.09.499-.354.64-.313.169-.77.074-.97-.221a6.522 6.522 0 0 0 -.497-.64c-.215-.242-.444-.371-.78-.269-.276.085-.536.037-.736-.2-.03-.037-.064-.087-.133-.07-.056.14.131.215.096.354-.167.009-.31-.055-.45-.121-.185-.083-.269-.192-.165-.413.091-.192.124-.41.182-.618-.217.177-.291.43-.422.65-.133.225-.089.4.116.568.21.173.421.34.65.484.136.084.254.178.345.314.394.598.96.727 1.623.577.1-.023.21-.067.329.036-.607.29-1.19.427-1.799.06.174.237.383.404.629.53.167.089.336.109.504.032.254-.117.524-.212.74-.39.192-.157.384-.15.619-.073-.907.56-1.478 1.395-2.027 2.327.315-.302.587-.56.852-.825.1-.098.176-.102.289-.016.153.116.31.24.574.29-.125-.154-.214-.258-.297-.369-.093-.123-.129-.257-.015-.382.205-.222.296-.576.67-.604.059-.005.124.057.187.085.124.056.237.14.417.157-.1-.18-.245-.255-.381-.34-.042-.028-.115-.043-.098-.105.017-.064.088-.071.151-.08.102-.01.211.061.327.002-.188-.204-.188-.204-.097-.283.455-.395 1.17-.366 1.611.067-.146.114-.332.183-.425.36.068.04.109 0 .156-.02.499-.22.99-.347 1.502-.004.24.162.538.125.813.056.261-.064.454-.235.639-.42a.79.79 0 0 0 -.302.095c-.297.164-.603.153-.915.066-.125-.036-.33-.07-.288-.23.033-.121.215-.02.329-.002.509.076.944-.04 1.284-.455.11-.134.144-.327.319-.406.35-.161.59-.459.865-.712.055-.047.107-.098.083-.179zm-7.575 4.876c-.168-.038-.276.055-.211.244.056.164.125.326.207.478.042.08.1.188.213.164.098-.023.092-.138.117-.219.04-.132.074-.267.112-.406-.028-.281-.273-.226-.438-.261zm1.088.326-.301-.078c-.081-.022-.124.005-.098.09.106.34.225.675.483.937.078.079.142.071.204-.033.083-.138.053-.286.065-.431.016-.394.016-.394-.353-.485zm-.538 1.176a3.026 3.026 0 0 0 -.201.826c-.005.517.065.567.484.441.049-.016.098-.045.148-.045.152.001.192-.075.178-.214-.04-.408-.277-.74-.44-1.098-.057-.127-.144.025-.169.09zm-.779-4.819c.119-.015.244.02.356-.054.058-.04.116-.068.111-.157-.023-.445-.663-.841-1.081-.67-.098.04-.142.097-.12.198.082.372.254.728.734.683m5.549 0c-.368.008-.408-.053-.229-.376.104-.187.18-.399.385-.514.212-.118.468-.07.597.132.128.198.013.348-.126.479a.95.95 0 0 1 -.627.278" fill="#fff"/></svg>